<svg width="1674" height="1674" viewBox="0 0 1674 1674" fill="none" xmlns="http://www.w3.org/2000/svg">
<g clip-path="url(#clip0_426_2)">
<ellipse cx="836.985" cy="836.995" rx="836.985" ry="836.995" fill="#F9D5D5"/>
<path d="M836.97 1616.13C1267.28 1616.13 1616.11 1267.3 1616.11 836.99C1616.11 406.682 1267.28 57.8496 836.97 57.8496C406.663 57.8496 57.8301 406.682 57.8301 836.99C57.8301 1267.3 406.663 1616.13 836.97 1616.13Z" fill="#F9D5D5"/>
<path d="M686.999 601.1C692.199 600.9 697.619 600.85 703.109 600.98C713.659 601.22 725.559 600.63 738.599 599.22C752.119 597.45 765.009 594.06 776.849 589.16C789.349 584.14 800.119 577.18 808.869 568.48C818.449 558.95 823.859 546.62 824.949 531.75C825.539 522.08 824.009 513.28 820.439 505.72C816.939 497.91 812.039 491.07 805.899 485.39C799.779 479.73 792.449 475.29 784.199 472.21C776.279 469.13 767.869 467.46 759.179 467.26C742.089 466.87 726.259 470.86 712.129 479.11C698.399 487.13 686.189 497.42 675.819 509.7C668.709 518.18 662.369 527.66 656.889 538.03C652.549 546.81 649.039 555.98 646.449 565.34C624.649 565.6 602.859 566.74 581.619 568.75C558.569 570.93 536.679 575.24 516.539 581.56C502.369 586.04 489.009 592 476.869 599.25C464.849 606.3 454.219 615.08 445.259 625.35C436.279 635.64 428.909 647.86 423.379 661.66C417.839 675.47 414.639 691.57 413.899 709.27C412.829 722.33 421.529 725.01 424.239 725.54L424.789 725.62C429.519 726.09 435.429 726.06 442.859 725.53L448.649 725.11V719.31C448.679 704.38 450.569 691.12 454.249 680C458.269 668.5 463.709 658.51 470.329 650.39C477.389 642.12 485.799 635.02 495.309 629.29C504.969 623.48 515.719 618.73 527.369 615.14C544.969 609.39 564.109 605.56 584.249 603.75C602.969 602.1 622.319 601.12 641.869 600.82C641.829 613.97 643.489 626.41 646.839 637.9C650.629 650.56 655.349 662.91 660.919 674.72C666.679 686.23 672.869 697.75 679.429 709.15C686.049 719.75 692.259 730.83 697.879 742.07C703.429 753.16 708.069 764.88 711.659 776.89C715.169 788.62 716.789 801.47 716.479 815.07C716.029 834.6 712.529 853.17 706.049 870.33C699.969 886.98 691.149 901.52 679.769 913.63C668.499 925.94 654.559 935.51 638.209 942.12C622.279 949.01 604.079 952.27 584.099 951.81C571.589 951.52 559.949 949.21 549.389 944.9C539.359 940.99 530.469 935.19 522.969 927.65C515.769 920.43 510.049 911.72 505.989 901.84C501.889 891.52 499.799 879.96 499.769 867.64C499.989 857.94 501.469 848.62 504.099 840.15C507.039 831.67 511.219 824.2 516.489 817.98C522.049 811.49 528.879 806.31 536.799 802.58C544.639 798.88 553.659 797.12 563.619 797.35C575.109 797.61 583.609 800.69 588.989 806.6C595.009 812.9 599.159 820.79 601.339 830.08C603.629 839.5 604.489 850.2 603.899 862.03C603.629 873.89 603.209 885.08 602.639 895.5C602.539 899.67 602.939 902.9 603.859 905.35L604.149 906.12L604.629 906.79C606.269 909.08 608.469 910.84 611.179 911.99L611.809 912.26L612.479 912.39C614.809 912.83 617.499 913.09 620.479 913.15L621.169 913.13C623.909 912.89 627.219 912.81 630.989 912.89L637.229 913.03L637.369 906.79C637.689 892.87 638.199 877.79 638.889 861.95C639.609 845.43 638.209 829.99 634.729 816.1C631.099 801.23 623.869 788.6 613.309 778.65C602.729 768.34 586.279 762.86 564.419 762.36C548.849 762.01 534.729 764.76 522.569 770.5C510.359 775.91 499.729 783.6 490.949 793.38C482.569 802.78 476.019 814.11 471.489 827.06C466.999 839.9 464.729 853.51 464.759 867.46C464.719 884.5 467.539 900.47 473.149 914.92C478.789 929.45 486.889 942.11 497.289 952.64C507.929 963.06 520.709 971.35 535.149 977.24C541.439 979.95 548.029 982.13 554.899 983.75C563.909 985.88 573.399 987.07 583.269 987.3C608.369 987.87 631.359 983.84 651.569 975.33C672.159 966.82 689.989 954.58 704.549 938.98C719.039 923.45 730.469 905.03 738.529 884.18C746.549 863.12 750.899 840.14 751.449 815.88C751.809 800.01 750.039 785.05 746.199 771.46C742.419 757.73 737.529 744.65 731.659 732.56C725.859 720.61 719.449 709 712.729 698.25C706.389 687.23 700.299 676.07 694.729 665.28C689.469 654.13 684.959 642.67 681.389 631.44C678.699 621.86 677.229 611.62 676.999 600.91L686.609 601.13H686.999V601.1ZM756.649 559.5C747.659 562.16 738.069 564.05 728.309 565.08C718.549 565.83 710.339 566.14 703.909 565.99L683.339 565.52C685.009 561.02 686.999 556.58 689.259 552.29C693.219 545.11 697.859 538.33 703.029 532.16C710.119 523.85 718.569 516.56 728.149 510.49C737.259 504.71 746.919 502.17 757.859 502.72C760.879 502.79 763.939 503.19 766.969 503.9C768.009 504.15 769.059 504.43 770.099 504.76C773.889 505.94 777.299 507.81 780.229 510.32L780.709 510.69C783.769 512.83 785.959 515.37 787.409 518.44L787.589 518.8C789.229 521.76 789.859 525.19 789.509 529.28C788.779 536.92 785.589 542.96 779.899 547.62C773.379 552.65 765.519 556.66 756.649 559.5Z" fill="#E93225"/>
<path d="M1068.9 792.251C1074.1 792.051 1079.52 792.001 1085.01 792.131C1095.56 792.371 1107.46 791.781 1120.5 790.371C1134.02 788.601 1146.91 785.211 1158.75 780.311C1171.25 775.291 1182.02 768.331 1190.77 759.631C1200.35 750.101 1205.76 737.771 1206.85 722.901C1207.44 713.231 1205.91 704.431 1202.34 696.871C1198.84 689.061 1193.94 682.221 1187.8 676.541C1181.68 670.881 1174.35 666.441 1166.1 663.361C1158.18 660.281 1149.77 658.611 1141.08 658.411C1123.99 658.021 1108.16 662.011 1094.03 670.261C1080.3 678.281 1068.09 688.571 1057.72 700.851C1050.61 709.331 1044.27 718.811 1038.79 729.181C1034.45 737.961 1030.94 747.131 1028.35 756.491C1006.55 756.751 984.76 757.891 963.52 759.901C940.47 762.081 918.58 766.391 898.44 772.711C884.27 777.191 870.91 783.151 858.77 790.401C846.75 797.451 836.12 806.231 827.16 816.501C818.18 826.791 810.81 839.011 805.28 852.811C799.74 866.621 796.54 882.721 795.8 900.421C794.73 913.481 803.43 916.161 806.14 916.691L806.69 916.771C811.42 917.241 817.33 917.211 824.76 916.681L830.55 916.261V910.461C830.58 895.531 832.47 882.271 836.15 871.151C840.17 859.651 845.61 849.661 852.23 841.541C859.29 833.271 867.7 826.171 877.21 820.441C886.87 814.631 897.62 809.881 909.27 806.291C926.87 800.541 946.01 796.711 966.15 794.901C984.87 793.251 1004.22 792.271 1023.77 791.971C1023.73 805.121 1025.39 817.561 1028.74 829.051C1032.53 841.711 1037.25 854.061 1042.82 865.871C1048.58 877.381 1054.77 888.901 1061.33 900.301C1067.95 910.901 1074.16 921.981 1079.78 933.221C1085.33 944.311 1089.97 956.031 1093.56 968.041C1097.07 979.771 1098.69 992.621 1098.38 1006.22C1097.93 1025.75 1094.43 1044.32 1087.95 1061.48C1081.87 1078.13 1073.05 1092.67 1061.67 1104.78C1050.4 1117.09 1036.46 1126.66 1020.11 1133.27C1004.18 1140.16 985.98 1143.42 966 1142.96C953.49 1142.67 941.85 1140.36 931.29 1136.05C921.26 1132.14 912.37 1126.34 904.87 1118.8C897.67 1111.58 891.95 1102.87 887.89 1092.99C883.79 1082.67 881.7 1071.11 881.67 1058.79C881.89 1049.09 883.37 1039.77 886 1031.3C888.94 1022.82 893.12 1015.35 898.39 1009.13C903.95 1002.64 910.78 997.461 918.7 993.731C926.54 990.031 935.56 988.271 945.52 988.501C957.01 988.761 965.51 991.841 970.89 997.751C976.91 1004.05 981.06 1011.94 983.24 1021.23C985.53 1030.65 986.39 1041.35 985.8 1053.18C985.53 1065.04 985.11 1076.23 984.54 1086.65C984.44 1090.82 984.84 1094.05 985.76 1096.5L986.05 1097.27L986.53 1097.94C988.17 1100.23 990.37 1101.99 993.08 1103.14L993.71 1103.41L994.38 1103.54C996.71 1103.98 999.4 1104.24 1002.38 1104.3L1003.07 1104.28C1005.81 1104.04 1009.12 1103.96 1012.89 1104.04L1019.13 1104.18L1019.27 1097.94C1019.59 1084.02 1020.1 1068.94 1020.79 1053.1C1021.51 1036.58 1020.11 1021.14 1016.63 1007.25C1013 992.381 1005.77 979.751 995.21 969.801C984.63 959.491 968.18 954.011 946.32 953.511C930.75 953.161 916.63 955.911 904.47 961.651C892.26 967.061 881.63 974.751 872.85 984.531C864.47 993.931 857.92 1005.26 853.39 1018.21C848.9 1031.05 846.63 1044.66 846.66 1058.61C846.62 1075.65 849.44 1091.62 855.05 1106.07C860.69 1120.6 868.79 1133.26 879.19 1143.79C889.83 1154.21 902.61 1162.5 917.05 1168.39C923.34 1171.1 929.93 1173.28 936.8 1174.9C945.81 1177.03 955.3 1178.22 965.17 1178.45C990.27 1179.02 1013.26 1174.99 1033.47 1166.48C1054.06 1157.97 1071.89 1145.73 1086.45 1130.13C1100.94 1114.6 1112.37 1096.18 1120.43 1075.33C1128.45 1054.27 1132.8 1031.29 1133.35 1007.03C1133.71 991.161 1131.94 976.201 1128.1 962.611C1124.32 948.881 1119.43 935.801 1113.56 923.711C1107.76 911.761 1101.35 900.151 1094.63 889.401C1088.29 878.381 1082.2 867.221 1076.63 856.431C1071.37 845.281 1066.86 833.821 1063.29 822.591C1060.6 813.011 1059.13 802.771 1058.9 792.061L1068.51 792.281H1068.9V792.251ZM1138.55 750.651C1129.56 753.311 1119.97 755.201 1110.21 756.231C1100.45 756.981 1092.24 757.291 1085.81 757.141L1065.24 756.671C1066.91 752.171 1068.9 747.731 1071.16 743.441C1075.12 736.261 1079.76 729.481 1084.93 723.311C1092.02 715.001 1100.47 707.711 1110.05 701.641C1119.16 695.861 1128.82 693.321 1139.76 693.871C1142.78 693.941 1145.84 694.341 1148.87 695.051C1149.91 695.301 1150.96 695.581 1152 695.911C1155.79 697.091 1159.2 698.961 1162.13 701.471L1162.61 701.841C1165.67 703.981 1167.86 706.521 1169.31 709.591L1169.49 709.951C1171.13 712.911 1171.76 716.341 1171.41 720.431C1170.68 728.071 1167.49 734.111 1161.8 738.771C1155.28 743.801 1147.42 747.811 1138.55 750.651Z" fill="#E93225"/>
<path d="M1043.47 626.56C1041.48 626.08 1038.49 625.96 1034.33 626.28C1033.6 626.34 1032.87 626.39 1032.15 626.45C1031.97 627.16 1031.79 627.88 1031.6 628.59C1030.86 631.5 1029.9 635.61 1028.75 640.88C1027.62 645.83 1026.07 650.97 1024.12 656.21C1022.4 661.09 1020.15 665.54 1017.43 669.48C1015.25 672.67 1012.84 674.4 1010.08 674.78C1008.9 674.94 1008.37 674.65 1008.08 674.41C1007.34 673.81 1006.8 673.09 1006.41 672.21C1005.95 671.17 1005.63 670.03 1005.45 668.84C1005.23 667.32 1005.11 665.94 1005.06 664.71C1004.92 660.85 1005 656.23 1005.29 651.07C1005.75 645.79 1006.47 639.96 1007.41 633.73C1008.35 627.47 1009.45 620.86 1010.71 613.88C1011.94 606.85 1013.37 599.57 1014.95 592.21C1018.09 576.86 1021.33 561.71 1024.63 546.78C1028.13 531.73 1028.15 529.37 1031.4 514.26C1032.75 508.98 1030.06 506.36 1027.1 505.73C1024.59 505.19 1021.58 505.1 1017.89 505.51C1017.14 505.59 1016.4 505.68 1015.65 505.76C1015.48 506.5 1015.31 507.25 1015.15 507.99C1011.52 524.04 1011.24 527.34 1007.46 543.86C1003.81 560.33 1000.33 577.01 997.121 593.41C996.821 594.93 996.48 596.61 996.1 598.44C995.02 596.74 993.591 595.28 991.821 594.06C987.631 591.15 982.661 590.22 977.071 591.33C969.811 592.77 963.401 596.68 958.061 602.81C952.921 608.52 948.661 615.27 945.391 622.85C942.701 629.24 940.67 635.98 939.35 642.89C939.2 643.67 939.041 644.46 938.891 645.25C938.181 648.9 937.25 653.53 936.1 659.18C935.15 664.39 933.761 669.6 932.001 674.67C930.291 679.57 927.991 684.05 925.111 688.06C922.751 691.49 919.741 693.63 915.891 694.6C915.501 694.7 914.241 694.98 914.011 694.56C913.441 693.53 913.04 692.19 912.85 690.82C912.73 687.72 913.001 683.8 913.621 679.27C914.431 674.51 915.431 669.54 916.611 664.37C917.761 658.57 918.821 652.88 919.801 647.28C920.821 641.46 921.15 636.01 920.79 631.18C920.67 627.85 920.18 624.72 919.35 621.91C918.46 618.73 916.97 616.11 915.1 614.29C913.22 612.03 910.73 610.47 907.85 609.71C904.82 608.72 901.151 608.76 896.941 609.82C891.571 611.18 886.691 614.22 882.451 618.83C881.041 620.35 879.661 622.01 878.301 623.79C877.591 621.93 876.01 621.29 875.22 621.11C872.98 620.35 869.681 620.55 864.841 621.69C864.071 621.87 863.301 622.05 862.521 622.23C859.601 637.6 856.681 652.95 853.761 668.29C853.131 671.02 852.371 674.44 851.491 678.56C850.381 683.77 848.831 689.08 846.871 694.43C845.131 699.54 842.951 704.23 840.431 708.31C838.251 711.69 835.771 713.62 832.831 714.2C831.921 714.38 831.661 714.13 831.531 714C830.871 713.38 830.33 712.6 829.91 711.67C829.45 710.65 829.13 709.53 828.97 708.64C828.92 707.32 828.871 706 828.821 704.68C828.511 696.22 829.421 687.25 831.521 678.03C833.871 668.24 836.121 658.29 838.291 648.19C839.781 641.36 836.111 639.85 834.741 639.58C832.391 638.81 829.36 638.79 825.47 639.5C825.23 639.54 825.001 639.59 824.761 639.63C823.631 637.01 821.821 634.83 819.331 633.11C815.141 630.19 810.171 629.15 804.581 629.95C797.321 630.98 790.911 634.23 785.571 639.67C780.441 644.71 776.181 650.77 772.891 657.8C769.841 664.5 767.651 671.73 766.381 679.25C764.921 686.65 764.301 693.36 764.511 699.21C764.631 702.54 765.12 706 765.97 709.49C766.82 712.87 768.141 716.1 769.931 719.12C771.751 722.03 774.151 724.47 777.271 726.43C780.491 728.14 784.351 728.79 788.741 728.33C794.721 727.7 800.141 725.22 804.871 721.03C807.441 718.76 809.851 716.16 812.111 713.26C812.831 718.27 814.301 722.4 816.481 725.56C819.741 730.29 825.261 732.01 832.901 730.52C838.971 729.33 844.191 726.6 848.431 722.45C848.881 722.57 849.361 722.64 849.881 722.68C851.191 722.7 857.091 722.6 859.691 720.88C859.701 720.9 859.721 720.92 859.731 720.94C862.301 718.96 862.671 715.34 863.131 710.75C863.321 708.85 863.531 706.8 863.921 704.83C865.031 699.06 866.411 692.74 868.001 686.12C869.761 679.45 871.711 672.66 873.791 665.94C876.011 659.07 878.451 652.72 881.051 647.06C883.571 641.56 886.311 636.9 889.181 633.23C891.891 629.76 894.54 627.74 897.29 627.05C898.51 626.74 899.48 626.73 900.16 627.03C900.88 627.34 901.381 627.83 901.921 628.91C902.421 629.59 902.74 630.44 902.98 631.8C903.31 632.99 903.501 634.23 903.551 635.5C903.691 639.24 903.361 643.66 902.571 648.63C901.761 653.75 900.771 659.07 899.631 664.46C898.481 670.09 897.411 675.53 896.391 680.88C895.541 686.28 895.281 691.2 895.611 695.47C896.021 701.32 897.861 705.8 901.141 708.85C904.541 711.82 909.691 712.46 916.431 710.75C923.431 708.99 929.291 705.73 933.821 701.12C938.031 696.95 941.501 692.1 944.091 686.74C945.631 688.34 947.491 689.66 949.701 690.7C952.921 691.9 956.781 692 961.171 691.03C968.271 689.46 974.501 685.75 979.691 679.98C982.561 676.88 985.231 673.46 987.691 669.75C987.921 672.16 988.36 674.51 989.04 676.84C990.06 679.74 991.47 682.35 993.29 684.68C995.11 686.84 997.411 688.56 1000.15 689.83C1003.03 691.17 1006.48 691.56 1010.39 691.03C1016.8 690.16 1022.28 687.55 1026.65 683.22C1030.99 679.07 1034.54 674.13 1037.16 668.55C1039.9 663.04 1042.07 657.27 1043.57 651.43C1045.22 645.46 1046.49 640.13 1047.32 635.63C1048.83 628.6 1045.13 626.9 1043.43 626.52L1043.47 626.56ZM817.41 662.92C817.19 664.07 814.42 675.17 812.72 679.94C810.64 685.75 808.271 691.08 805.651 695.85C802.481 701.96 797.331 709.52 790.441 711.4C786.441 712.49 785.241 711.08 783.761 707.59C780.631 700.17 781.951 690.79 783.241 682.87C784.161 677.21 785.671 671.74 787.751 666.58C789.771 661.39 792.391 656.86 795.581 653.03C798.441 649.46 801.71 647.46 805.6 646.9C807.11 646.69 809.581 646.67 810.571 646.89C818.991 648.7 818.761 655.96 817.421 662.91L817.41 662.92ZM989.751 623.89C989.531 625.04 986.761 636.18 985.061 640.99C982.981 646.86 980.611 652.28 977.991 657.18C974.821 663.46 969.661 671.33 962.781 673.97C958.781 675.51 957.57 674.27 956.1 670.98C952.98 663.99 954.291 654.43 955.581 646.33C956.501 640.54 958.011 634.87 960.091 629.46C962.111 624.02 964.731 619.21 967.921 615.09C970.781 611.26 974.051 609.01 977.941 608.24C979.451 607.94 981.91 607.83 982.91 608.01C991.33 609.58 991.101 616.95 989.761 623.88L989.751 623.89Z" fill="#E93225"/>
<path d="M827.95 732.95C820.93 732.95 817.04 729.71 814.94 726.66C813.21 724.16 811.9 721.1 811.02 717.55C809.44 719.33 807.8 720.97 806.12 722.47C801.05 726.96 795.27 729.57 788.94 730.23C784.2 730.72 779.97 730.02 776.39 728.12C772.96 725.97 770.36 723.38 768.34 720.15C766.46 716.97 765.06 713.56 764.16 709.98C763.28 706.38 762.78 702.8 762.64 699.31C762.42 693.3 763.06 686.44 764.54 678.92C765.83 671.28 768.06 663.91 771.18 657.06C774.55 649.87 778.94 643.59 784.25 638.37C789.83 632.68 796.59 629.23 804.31 628.13C810.39 627.27 815.82 628.42 820.39 631.61C822.72 633.22 824.54 635.23 825.82 637.57C829.69 636.93 832.82 637 835.32 637.83C835.9 637.93 837.91 638.53 839.26 640.59C840.56 642.58 840.85 645.28 840.12 648.62C837.92 658.86 835.63 668.91 833.33 678.5C831.27 687.55 830.37 696.35 830.69 704.64L830.84 708.6C830.95 709.16 831.25 710.12 831.61 710.93C831.85 711.49 832.16 711.97 832.51 712.36C835 711.8 837.01 710.16 838.84 707.32C841.28 703.38 843.39 698.84 845.08 693.85C847.01 688.6 848.54 683.35 849.65 678.19C850.53 674.06 851.29 670.63 851.93 667.89L860.9 620.7L864.4 619.88C869.69 618.64 873.22 618.48 875.82 619.35C876.31 619.47 877.37 619.82 878.36 620.7C879.25 619.61 880.15 618.57 881.07 617.58C885.56 612.68 890.74 609.47 896.48 608.02C901.03 606.86 905.05 606.84 908.43 607.94C911.6 608.77 914.43 610.57 916.54 613.11C918.54 615.03 920.18 617.95 921.15 621.42C922.02 624.36 922.52 627.63 922.65 631.13C923.02 636.06 922.68 641.63 921.63 647.62C920.64 653.23 919.58 658.94 918.43 664.74C917.24 669.97 916.24 674.95 915.45 679.59C914.84 684.04 914.58 687.81 914.7 690.74C914.8 691.44 914.98 692.17 915.23 692.82C915.28 692.81 915.34 692.8 915.4 692.78C918.79 691.92 921.44 690.04 923.53 687C926.32 683.13 928.55 678.78 930.2 674.05C931.94 669.03 933.3 663.91 934.23 658.83C935.39 653.14 936.32 648.53 937.02 644.88L937.42 642.85C938.84 635.46 940.91 628.59 943.64 622.11C947.01 614.3 951.38 607.38 956.65 601.54C962.31 595.06 969.05 591 976.69 589.48C982.81 588.28 988.24 589.28 992.88 592.5C993.65 593.04 994.36 593.62 995.01 594.23L995.25 593.04C998.44 576.76 1001.91 560.07 1005.6 543.45C1007.56 534.89 1008.57 529.89 1009.61 524.82C1010.57 520.09 1011.55 515.31 1013.29 507.56L1014.1 504.03L1017.67 503.63C1021.5 503.21 1024.7 503.29 1027.47 503.88C1029.61 504.34 1031.37 505.53 1032.45 507.26C1033.31 508.63 1034.13 511.05 1033.2 514.71C1031.84 521.03 1031.05 525.14 1030.32 528.89C1029.33 534.04 1028.47 538.49 1026.44 547.19C1022.92 563.12 1019.75 577.97 1016.77 592.57C1015.2 599.87 1013.78 607.14 1012.54 614.19C1011.29 621.15 1010.19 627.74 1009.26 633.99C1008.33 640.13 1007.62 645.93 1007.16 651.22C1006.87 656.3 1006.79 660.82 1006.94 664.62C1006.98 665.79 1007.1 667.12 1007.31 668.56C1007.47 669.57 1007.74 670.54 1008.14 671.44C1008.4 672.04 1008.77 672.52 1009.28 672.94C1009.28 672.94 1009.34 672.94 1009.43 672.94C1009.52 672.94 1009.66 672.94 1009.84 672.91C1012.05 672.61 1014.03 671.13 1015.9 668.41C1018.54 664.59 1020.71 660.27 1022.37 655.58C1024.29 650.42 1025.83 645.34 1026.94 640.46C1028.09 635.18 1029.05 631.05 1029.8 628.12L1030.67 624.68L1034.21 624.4C1038.5 624.08 1041.67 624.19 1043.92 624.73C1045.21 625.02 1051.2 626.87 1049.22 636.06C1048.41 640.5 1047.13 645.86 1045.45 651.96C1043.93 657.88 1041.73 663.77 1038.91 669.42C1036.22 675.16 1032.55 680.29 1028.01 684.62C1023.4 689.19 1017.57 692 1010.71 692.94C1006.42 693.53 1002.62 693.07 999.43 691.58C996.44 690.19 993.91 688.29 991.92 685.94C989.95 683.42 988.43 680.6 987.34 677.51C987.07 676.57 986.83 675.63 986.63 674.69C984.89 677.02 983.06 679.23 981.15 681.3C975.72 687.34 969.15 691.26 961.65 692.91C956.86 693.96 952.65 693.82 949.12 692.51C947.46 691.73 946 690.84 944.72 689.82C942.18 694.51 938.99 698.77 935.21 702.51C930.45 707.36 924.3 710.77 916.96 712.62C909.59 714.48 903.86 713.72 899.97 710.32C896.31 706.91 894.25 701.98 893.81 695.65C893.46 691.22 893.74 686.17 894.61 680.63C895.63 675.21 896.7 669.76 897.86 664.13C898.99 658.78 899.97 653.48 900.79 648.39C901.56 643.55 901.88 639.25 901.74 635.62C901.7 634.49 901.53 633.39 901.24 632.36C900.98 630.89 900.71 630.39 900.47 630.07C899.9 628.98 899.68 628.89 899.49 628.81C899.42 628.79 899.02 628.62 897.82 628.92C895.49 629.51 893.17 631.32 890.73 634.44C887.94 638 885.27 642.53 882.82 647.9C880.26 653.47 877.84 659.75 875.63 666.57C873.55 673.28 871.61 680.04 869.87 686.65C868.27 693.31 866.91 699.58 865.82 705.23C865.46 707.09 865.26 709.01 865.08 710.81C864.57 715.83 864.15 720 860.94 722.47L859.43 723.63L859.18 723.29C855.82 724.59 850.99 724.61 849.92 724.6C849.62 724.58 849.34 724.56 849.08 724.52C844.69 728.57 839.39 731.22 833.32 732.41C831.37 732.79 829.6 732.96 828 732.96L827.95 732.95ZM813.34 708.67L813.97 713.03C814.65 717.75 816.02 721.62 818.03 724.53C820.86 728.63 825.77 730.04 832.55 728.71C838.23 727.6 843.13 725.05 847.12 721.14L847.89 720.39L848.93 720.67C849.26 720.76 849.62 720.82 850.01 720.84C852.39 720.75 856.93 720.49 858.66 719.34L859.01 719.11C860.57 717.5 860.88 714.42 861.27 710.6C861.49 708.51 861.7 706.47 862.08 704.5C863.18 698.8 864.55 692.47 866.18 685.71C867.94 679.01 869.9 672.19 872 665.41C874.26 658.43 876.73 652.01 879.35 646.31C881.92 640.67 884.74 635.89 887.71 632.1C890.67 628.3 893.66 626.06 896.84 625.26C898.51 624.83 899.85 624.87 900.94 625.35C902.1 625.84 902.91 626.68 903.62 628.11C904.14 628.78 904.57 629.91 904.85 631.52C905.18 632.65 905.39 634.04 905.45 635.47C905.59 639.34 905.25 643.89 904.45 648.97C903.63 654.13 902.63 659.49 901.49 664.9C900.34 670.5 899.27 675.93 898.26 681.28C897.44 686.47 897.18 691.24 897.51 695.38C897.88 700.75 899.54 704.83 902.44 707.54C905.3 710.03 909.85 710.54 915.99 708.99C922.66 707.31 928.22 704.23 932.5 699.87C936.58 695.83 939.91 691.17 942.42 685.99L943.59 683.56L945.46 685.5C946.86 686.95 948.52 688.12 950.52 689.07C953.22 690.07 956.73 690.16 960.78 689.26C967.5 687.78 973.4 684.25 978.31 678.79C981.13 675.74 983.76 672.37 986.14 668.78L989.08 664.34L989.57 669.64C989.79 671.96 990.21 674.16 990.85 676.38C991.77 678.99 993.11 681.44 994.78 683.59C996.37 685.47 998.45 687.03 1000.94 688.19C1003.47 689.36 1006.56 689.71 1010.14 689.23C1016.17 688.41 1021.29 685.96 1025.33 681.94C1029.55 677.91 1032.95 673.16 1035.46 667.81C1038.18 662.35 1040.29 656.71 1041.76 651.01C1043.42 644.99 1044.67 639.73 1045.48 635.34C1046.33 631.38 1045.46 628.94 1043.04 628.41H1043C1041.15 627.95 1038.27 627.88 1034.43 628.17L1033.6 628.23L1033.38 629.07C1032.64 631.97 1031.69 636.05 1030.55 641.3C1029.4 646.36 1027.82 651.6 1025.84 656.89C1024.08 661.87 1021.75 666.48 1018.93 670.57C1016.43 674.21 1013.61 676.21 1010.29 676.66C1008.86 676.86 1007.75 676.61 1006.86 675.89C1005.88 675.09 1005.16 674.14 1004.64 672.99C1004.11 671.79 1003.74 670.49 1003.53 669.14C1003.3 667.53 1003.17 666.08 1003.12 664.8C1002.97 660.89 1003.05 656.24 1003.35 650.98C1003.82 645.56 1004.54 639.68 1005.48 633.46C1006.42 627.19 1007.52 620.56 1008.78 613.57C1010.02 606.48 1011.46 599.16 1013.04 591.83C1016.01 577.23 1019.18 562.36 1022.72 546.39C1024.74 537.74 1025.59 533.33 1026.58 528.21C1027.31 524.44 1028.11 520.31 1029.49 513.88C1029.98 511.93 1029.88 510.36 1029.21 509.28C1028.5 508.14 1027.29 507.73 1026.64 507.59C1024.26 507.08 1021.45 507.01 1018.04 507.4L1017.13 507.5L1016.92 508.42C1015.18 516.14 1014.2 520.9 1013.25 525.6C1012.21 530.69 1011.19 535.71 1009.22 544.3C1005.55 560.88 1002.07 577.53 998.9 593.79L996.95 603.38L994.46 599.47C993.53 598 992.26 596.71 990.69 595.61C986.92 593 982.45 592.17 977.38 593.19C970.57 594.54 964.53 598.2 959.41 604.06C954.4 609.62 950.25 616.19 947.05 623.61C944.43 629.84 942.43 636.46 941.13 643.26L940.67 645.63C939.97 649.28 939.04 653.91 937.88 659.57C936.93 664.8 935.52 670.1 933.72 675.3C931.95 680.37 929.55 685.04 926.58 689.17C923.98 692.96 920.6 695.35 916.3 696.44C914.27 696.95 912.93 696.63 912.31 695.48C911.64 694.28 911.16 692.75 910.94 691.08C910.8 687.76 911.07 683.76 911.72 679.03C912.53 674.25 913.54 669.21 914.74 663.97C915.87 658.24 916.93 652.56 917.92 646.97C918.91 641.3 919.24 636.04 918.88 631.34C918.76 628.09 918.3 625.12 917.52 622.46C916.72 619.61 915.42 617.26 913.76 615.66C912.02 613.58 909.85 612.21 907.34 611.55C904.54 610.64 901.22 610.69 897.37 611.67C892.36 612.94 887.8 615.78 883.81 620.13C882.44 621.62 881.08 623.23 879.77 624.96L877.72 627.65L876.52 624.49C876.12 623.43 875.24 623.08 874.76 622.96C872.74 622.29 869.69 622.5 865.24 623.54L864.11 623.8L855.58 668.66C854.94 671.45 854.18 674.85 853.3 678.97C852.16 684.3 850.57 689.72 848.6 695.1C846.83 700.31 844.6 705.11 841.99 709.32C839.5 713.19 836.62 715.39 833.15 716.07C831.9 716.32 830.92 716.08 830.19 715.38C829.37 714.61 828.68 713.62 828.15 712.46C827.66 711.36 827.27 710.1 827.08 708.98L826.9 704.77C826.58 696.15 827.5 687.02 829.64 677.64C831.93 668.07 834.21 658.04 836.41 647.82C836.91 645.53 836.79 643.73 836.08 642.64C835.51 641.77 834.67 641.51 834.33 641.45C832.09 640.74 829.37 640.72 825.77 641.39L823.59 641.79L822.99 640.41C822.01 638.13 820.4 636.2 818.21 634.69C814.45 632.07 809.95 631.11 804.8 631.84C797.91 632.82 791.88 635.91 786.86 641.02C781.85 645.95 777.71 651.87 774.55 658.63C771.58 665.17 769.43 672.23 768.19 679.59C766.75 686.88 766.14 693.45 766.35 699.16C766.47 702.39 766.95 705.73 767.75 709.06C768.56 712.28 769.82 715.35 771.5 718.18C773.19 720.89 775.4 723.08 778.22 724.86C781.01 726.34 784.52 726.91 788.5 726.48C794.04 725.9 799.11 723.6 803.58 719.64C806.04 717.47 808.39 714.94 810.59 712.13L813.3 708.66L813.34 708.67ZM915.61 693.64C915.61 693.64 915.61 693.65 915.61 693.66C915.61 693.66 915.61 693.65 915.61 693.64ZM788.16 713.64C784.63 713.64 783.23 711.14 782.04 708.34C778.83 700.7 779.96 691.43 781.39 682.59C782.33 676.8 783.89 671.19 786.01 665.9C788.08 660.56 790.82 655.83 794.14 651.85C797.28 647.93 800.95 645.7 805.33 645.06C806.92 644.83 809.66 644.79 810.97 645.07C822.3 647.5 820.1 658.96 819.27 663.28C819.03 664.57 816.21 675.8 814.5 680.58C812.39 686.47 809.97 691.92 807.31 696.76C804.01 703.11 798.48 711.16 790.94 713.22C789.89 713.51 788.97 713.64 788.16 713.64ZM808.34 648.62C807.5 648.62 806.57 648.66 805.85 648.77C802.46 649.26 799.57 651.04 797.04 654.22C793.96 657.91 791.43 662.29 789.5 667.27C787.47 672.32 785.99 677.67 785.1 683.19C783.75 691.49 782.67 700.16 785.5 706.87C786.82 710 787.3 710.31 789.95 709.6C796.17 707.9 801.02 700.72 803.99 694.99C806.58 690.28 808.92 685.01 810.96 679.31C812.64 674.61 815.4 663.5 815.58 662.56C817.26 653.81 815.75 649.93 810.18 648.73C809.83 648.66 809.14 648.62 808.36 648.62H808.34ZM959.92 676.51C957.17 676.51 955.68 674.64 954.39 671.76C951.16 664.53 952.29 655.1 953.73 646.05C954.66 640.15 956.21 634.35 958.33 628.8C960.41 623.21 963.13 618.2 966.43 613.95C969.57 609.75 973.22 607.27 977.57 606.41C979.14 606.09 981.9 605.92 983.25 606.18C986.49 606.78 988.91 608.23 990.43 610.46C993.07 614.34 992.45 619.87 991.6 624.25C991.36 625.53 988.56 636.75 986.83 641.63C984.74 647.55 982.32 653.09 979.65 658.08C976.38 664.54 970.9 672.88 963.45 675.74C962.08 676.27 960.92 676.51 959.92 676.51ZM981.54 609.81C980.6 609.81 979.27 609.9 978.31 610.09C974.9 610.77 972 612.77 969.43 616.22C966.35 620.2 963.81 624.87 961.86 630.12C959.82 635.43 958.34 640.98 957.45 646.63C956.1 655.12 955.02 663.93 957.84 670.22C959.07 672.99 959.4 673.27 962.12 672.23C968.46 669.8 973.34 662.25 976.33 656.34C978.93 651.47 981.27 646.11 983.3 640.37C984.93 635.75 987.69 624.73 987.92 623.54C988.62 619.87 989.19 615.31 987.33 612.58C986.38 611.18 984.82 610.3 982.56 609.87C982.36 609.84 982 609.82 981.55 609.82L981.54 609.81Z" fill="#E93225"/>
<path d="M247.99 1197.28L288.57 1170.14L292.72 1176.35L278.48 1222.7L276.43 1219.62L307.68 1198.72L312.69 1206.21L272.09 1233.33L267.95 1227.13L282.19 1180.79L284.24 1183.86L252.99 1204.76L247.98 1197.28H247.99Z" fill="#E93225"/>
<path d="M291.861 1259.91L343.291 1245.03L349.081 1251.82L326.181 1300.25L320.021 1293.01L341.311 1250.11L343.661 1252.87L297.931 1267.05L291.871 1259.92L291.861 1259.91ZM307.021 1260.31L314.021 1257.56L331.101 1277.63L327.251 1284.09L307.011 1260.31H307.021Z" fill="#E93225"/>
<path d="M360.481 1335.44C357.711 1332.82 355.441 1329.9 353.671 1326.71C351.901 1323.52 350.841 1320.6 350.551 1317.95L357.681 1315C358.041 1317.45 358.921 1320.04 360.301 1322.78C361.681 1325.49 363.481 1327.9 365.671 1329.99C367.521 1331.74 369.211 1332.96 370.741 1333.66C372.271 1334.33 373.631 1334.59 374.831 1334.41C376.031 1334.23 377.041 1333.71 377.881 1332.82C378.901 1331.75 379.331 1330.52 379.191 1329.11C379.031 1327.71 378.521 1326.24 377.661 1324.69C376.801 1323.13 375.791 1321.48 374.611 1319.71C373.431 1317.95 372.291 1316.12 371.231 1314.26C370.161 1312.38 369.361 1310.49 368.811 1308.6C368.281 1306.7 368.191 1304.79 368.571 1302.83C368.931 1300.88 370.021 1298.97 371.811 1297.07C373.641 1295.14 375.831 1293.88 378.371 1293.26C380.911 1292.62 383.711 1292.83 386.741 1293.87C389.761 1294.9 392.891 1296.96 396.121 1300.03C398.241 1302.03 400.091 1304.31 401.681 1306.83C403.261 1309.36 404.341 1311.86 404.941 1314.35L398.021 1317.49C397.331 1315.04 396.361 1312.79 395.101 1310.74C393.841 1308.67 392.431 1306.91 390.881 1305.44C389.081 1303.71 387.381 1302.55 385.851 1301.91C384.291 1301.27 382.921 1301.06 381.721 1301.27C380.541 1301.49 379.511 1302.04 378.641 1302.96C377.621 1304.04 377.161 1305.26 377.301 1306.64C377.451 1308.02 377.941 1309.48 378.831 1311.02C379.691 1312.55 380.741 1314.22 381.921 1316.01C383.091 1317.8 384.241 1319.63 385.311 1321.49C386.401 1323.36 387.231 1325.22 387.771 1327.09C388.351 1328.99 388.421 1330.88 388.031 1332.82C387.641 1334.75 386.551 1336.65 384.791 1338.5C383.001 1340.4 380.831 1341.67 378.291 1342.29C375.741 1342.91 372.951 1342.69 369.911 1341.63C366.871 1340.57 363.731 1338.52 360.491 1335.44H360.481Z" fill="#E93225"/>
<path d="M409.9 1377.41L402.67 1371.93L432.16 1333.03L439.39 1338.51L409.9 1377.41ZM443.2 1376.41L421.91 1360.28L426.59 1354.12L447.88 1370.24L443.2 1376.42V1376.41ZM459.5 1353.77L466.73 1359.24L437.21 1398.14L430 1392.67L459.49 1353.77H459.5Z" fill="#E93225"/>
<path d="M483.161 1427.74L489.551 1374.84L498.041 1379.85L492.021 1427.55L487.151 1424.68L526.141 1396.41L533.951 1401.02L490.831 1432.27L483.141 1427.74H483.161Z" fill="#E93225"/>
<path d="M538.15 1457.34L559.05 1413.21L567.25 1417.09L546.35 1461.22L538.15 1457.34Z" fill="#E93225"/>
<path d="M582.16 1476.85L599.31 1431.15L607.8 1434.33L593.35 1472.85L617.23 1481.83L614.53 1489L582.15 1476.85H582.16Z" fill="#E93225"/>
<path d="M646.301 1498.88L658.931 1451.72L667.691 1454.07L657.031 1493.81L681.691 1500.42L679.701 1507.83L646.291 1498.87L646.301 1498.88Z" fill="#E93225"/>
<path d="M722.57 1508.64L749.76 1513.07L748.53 1520.57L712.4 1514.68L720.24 1466.5L755.42 1472.23L754.21 1479.72L727.98 1475.45L722.58 1508.63L722.57 1508.64ZM725.25 1487.87L749.2 1491.78L748.01 1499.16L724.05 1495.24L725.25 1487.87Z" fill="#E93225"/>
<path d="M831.161 1514.67C829.851 1514.64 828.621 1514.3 827.481 1513.64C826.321 1512.96 825.411 1512.06 824.761 1510.9C824.101 1509.75 823.801 1508.44 823.821 1506.95C823.841 1505.5 824.191 1504.23 824.891 1503.09C825.591 1501.95 826.511 1501.08 827.691 1500.44C828.861 1499.8 830.091 1499.51 831.401 1499.52C832.781 1499.54 834.061 1499.89 835.181 1500.55C836.321 1501.22 837.201 1502.14 837.861 1503.29C838.521 1504.44 838.841 1505.74 838.811 1507.17C838.781 1508.66 838.421 1509.97 837.731 1511.1C837.041 1512.22 836.131 1513.12 834.971 1513.73C833.821 1514.37 832.541 1514.67 831.161 1514.66V1514.67Z" fill="#E93225"/>
<path d="M926.241 1521.49L921.041 1480.67L904.991 1482.71L904.031 1475.1L945.141 1469.86L946.091 1477.48L930.041 1479.52L935.241 1520.34L926.251 1521.49H926.241Z" fill="#E93225"/>
<path d="M991.181 1502.79L1018.02 1496.57L1019.75 1503.97L984.081 1512.25L973.061 1464.68L1007.77 1456.63L1009.48 1464.03L983.591 1470.04L991.181 1502.79ZM985.791 1482.56L1009.43 1477.08L1011.12 1484.35L987.481 1489.84L985.791 1482.56Z" fill="#E93225"/>
<path d="M1054.75 1493.86L1038.48 1447.83L1045.52 1445.34L1086.92 1470.59L1083.43 1471.83L1070.9 1436.38L1079.38 1433.38L1095.66 1479.41L1088.61 1481.91L1047.21 1456.66L1050.71 1455.42L1063.24 1490.87L1054.75 1493.86Z" fill="#E93225"/>
<path d="M1132.16 1464.01L1110.51 1420.24L1117.21 1416.94L1161.31 1437.07L1157.98 1438.7L1141.32 1405.01L1149.4 1401.03L1171.04 1444.79L1164.35 1448.1L1120.22 1427.96L1123.55 1426.33L1140.2 1460.03L1132.15 1464.01H1132.16Z" fill="#E93225"/>
<path d="M1208.95 1413.68L1232.12 1398.76L1236.23 1405.16L1205.44 1424.98L1179.02 1383.91L1209 1364.63L1213.1 1371.02L1190.77 1385.39L1208.94 1413.67L1208.95 1413.68ZM1197.04 1396.45L1217.45 1383.32L1221.49 1389.6L1201.08 1402.73L1197.04 1396.45Z" fill="#E93225"/>
<path d="M1278.08 1374.72C1275.09 1377.09 1271.9 1378.95 1268.5 1380.27C1265.08 1381.6 1262.05 1382.23 1259.38 1382.15L1257.43 1374.69C1259.92 1374.68 1262.6 1374.17 1265.5 1373.15C1268.38 1372.16 1271.01 1370.72 1273.37 1368.84C1275.38 1367.24 1276.82 1365.73 1277.71 1364.31C1278.58 1362.88 1279.04 1361.57 1279.02 1360.36C1279.01 1359.16 1278.61 1358.08 1277.87 1357.14C1276.93 1355.97 1275.78 1355.38 1274.36 1355.34C1272.96 1355.31 1271.44 1355.6 1269.77 1356.24C1268.11 1356.88 1266.33 1357.67 1264.42 1358.6C1262.51 1359.53 1260.55 1360.38 1258.55 1361.19C1256.53 1362 1254.55 1362.53 1252.6 1362.8C1250.66 1363.08 1248.74 1362.9 1246.87 1362.26C1244.99 1361.62 1243.23 1360.28 1241.6 1358.25C1239.94 1356.18 1238.98 1353.85 1238.72 1351.23C1238.45 1348.62 1239.03 1345.88 1240.47 1343.03C1241.92 1340.19 1244.39 1337.37 1247.87 1334.57C1250.15 1332.74 1252.66 1331.22 1255.37 1330C1258.09 1328.8 1260.72 1328.06 1263.26 1327.82L1265.43 1335.11C1262.91 1335.45 1260.55 1336.11 1258.33 1337.07C1256.13 1338.02 1254.19 1339.18 1252.51 1340.51C1250.55 1342.08 1249.15 1343.59 1248.32 1345.02C1247.48 1346.47 1247.07 1347.8 1247.13 1349.02C1247.16 1350.23 1247.58 1351.32 1248.37 1352.31C1249.3 1353.47 1250.46 1354.08 1251.84 1354.14C1253.22 1354.2 1254.72 1353.89 1256.37 1353.23C1258.02 1352.56 1259.82 1351.78 1261.75 1350.85C1263.7 1349.93 1265.66 1349.06 1267.66 1348.24C1269.65 1347.42 1271.61 1346.86 1273.55 1346.57C1275.47 1346.26 1277.39 1346.46 1279.24 1347.09C1281.11 1347.76 1282.84 1349.08 1284.43 1351.09C1286.06 1353.11 1287.01 1355.45 1287.28 1358.05C1287.55 1360.67 1286.96 1363.41 1285.5 1366.27C1284.04 1369.13 1281.56 1371.96 1278.08 1374.74V1374.72Z" fill="#E93225"/>
<path d="M1331.04 1327.92C1328.32 1330.58 1325.32 1332.73 1322.07 1334.39C1318.8 1336.04 1315.84 1336.98 1313.18 1337.17L1310.5 1329.94C1312.96 1329.67 1315.6 1328.9 1318.37 1327.62C1321.15 1326.33 1323.61 1324.63 1325.77 1322.52C1327.6 1320.73 1328.89 1319.09 1329.63 1317.58C1330.38 1316.08 1330.67 1314.72 1330.54 1313.53C1330.42 1312.32 1329.93 1311.29 1329.08 1310.42C1328.05 1309.35 1326.82 1308.86 1325.44 1308.98C1324.03 1309.07 1322.53 1309.52 1320.94 1310.33C1319.36 1311.14 1317.66 1312.08 1315.85 1313.2C1314.05 1314.31 1312.19 1315.37 1310.26 1316.37C1308.34 1317.37 1306.42 1318.1 1304.52 1318.56C1302.61 1319.04 1300.68 1319.05 1298.74 1318.61C1296.81 1318.16 1294.94 1317 1293.12 1315.14C1291.26 1313.23 1290.07 1311.01 1289.56 1308.44C1289.02 1305.86 1289.33 1303.08 1290.49 1300.11C1291.65 1297.14 1293.8 1294.08 1296.99 1290.96C1299.1 1288.91 1301.44 1287.16 1304.02 1285.67C1306.61 1284.18 1309.15 1283.2 1311.66 1282.7L1314.53 1289.75C1312.06 1290.34 1309.76 1291.23 1307.66 1292.4C1305.56 1293.58 1303.74 1294.92 1302.22 1296.41C1300.4 1298.17 1299.17 1299.8 1298.47 1301.34C1297.78 1302.85 1297.52 1304.21 1297.68 1305.4C1297.85 1306.6 1298.37 1307.66 1299.26 1308.56C1300.29 1309.63 1301.5 1310.13 1302.88 1310.04C1304.26 1309.96 1305.75 1309.51 1307.32 1308.69C1308.89 1307.87 1310.6 1306.91 1312.44 1305.8C1314.28 1304.69 1316.14 1303.62 1318.05 1302.61C1319.96 1301.6 1321.85 1300.84 1323.75 1300.36C1325.65 1299.87 1327.55 1299.86 1329.47 1300.31C1331.39 1300.79 1333.24 1301.94 1335.03 1303.77C1336.85 1305.63 1338.02 1307.83 1338.55 1310.41C1339.07 1312.99 1338.77 1315.77 1337.59 1318.77C1336.42 1321.76 1334.23 1324.81 1331.04 1327.94V1327.92Z" fill="#E93225"/>
<path d="M1368.63 1275.65L1386.28 1254.49L1392.11 1259.37L1368.66 1287.49L1331.18 1256.21L1354.01 1228.84L1359.84 1233.7L1342.81 1254.11L1368.62 1275.64L1368.63 1275.65ZM1352.12 1262.79L1367.67 1244.15L1373.39 1248.93L1357.84 1267.57L1352.12 1262.79Z" fill="#E93225"/>
<path d="M1412.62 1218.28L1427.97 1195.38L1434.29 1199.63L1413.89 1230.04L1373.34 1202.87L1393.18 1173.25L1399.49 1177.48L1384.69 1199.56L1412.62 1218.27V1218.28ZM1394.86 1207.21L1408.37 1187.05L1414.57 1191.19L1401.05 1211.36L1394.86 1207.21Z" fill="#E93225"/>
<path d="M241.531 579.52C239.991 583.01 238.021 586.13 235.621 588.89C233.221 591.64 230.821 593.6 228.421 594.78L223.231 589.08C225.421 587.9 227.571 586.21 229.671 583.98C231.761 581.74 233.421 579.25 234.641 576.49C235.661 574.15 236.241 572.14 236.371 570.47C236.491 568.79 236.271 567.42 235.701 566.36C235.121 565.29 234.281 564.52 233.181 564.03C231.821 563.44 230.501 563.44 229.241 564.05C227.981 564.65 226.771 565.64 225.581 566.98C224.421 568.32 223.201 569.84 221.941 571.54C220.681 573.24 219.361 574.92 217.941 576.58C216.531 578.21 215.031 579.61 213.431 580.76C211.831 581.92 210.061 582.64 208.091 582.94C206.131 583.25 203.951 582.88 201.561 581.83C199.141 580.77 197.201 579.15 195.751 576.96C194.301 574.77 193.551 572.07 193.511 568.88C193.451 565.69 194.331 562.05 196.131 557.97C197.301 555.27 198.821 552.77 200.661 550.43C202.501 548.09 204.491 546.21 206.631 544.83L211.921 550.27C209.851 551.75 208.061 553.43 206.551 555.3C205.041 557.18 203.851 559.09 203.001 561.07C201.981 563.35 201.441 565.34 201.381 567.01C201.301 568.68 201.571 570.05 202.171 571.1C202.761 572.14 203.651 572.93 204.791 573.43C206.151 574.04 207.461 574.03 208.721 573.44C209.971 572.85 211.171 571.88 212.321 570.53C213.471 569.19 214.691 567.65 215.981 565.93C217.271 564.2 218.611 562.52 220.001 560.87C221.381 559.22 222.871 557.82 224.441 556.66C226.021 555.5 227.791 554.79 229.741 554.49C231.691 554.21 233.841 554.58 236.191 555.61C238.571 556.65 240.491 558.27 241.931 560.46C243.381 562.65 244.121 565.34 244.161 568.57C244.211 571.78 243.321 575.44 241.531 579.52Z" fill="#E93225"/>
<path d="M273.551 516.29C270.201 522.08 265.941 525.69 260.791 527.09C255.641 528.49 249.971 527.41 243.821 523.87L219.961 510.09L224.491 502.23L248.051 515.83C252.411 518.34 256.111 519.24 259.151 518.5C262.201 517.76 264.721 515.67 266.701 512.26C268.691 508.84 269.211 505.63 268.301 502.64C267.401 499.64 264.781 496.9 260.431 494.4L236.871 480.8L241.321 473.06L265.181 486.83C271.341 490.38 275.111 494.75 276.491 499.92C277.851 505.07 276.881 510.53 273.551 516.3V516.29Z" fill="#E93225"/>
<path d="M316.401 451.41C314.121 454.45 311.541 456.89 308.651 458.71C305.761 460.54 302.691 461.71 299.481 462.27C296.241 462.81 293.021 462.7 289.771 461.91C286.531 461.12 283.461 459.65 280.551 457.48C277.641 455.3 275.351 452.78 273.661 449.9C271.981 447.03 270.961 443.96 270.581 440.68C270.191 437.43 270.471 434.13 271.401 430.82C272.331 427.53 273.941 424.34 276.211 421.27C278.681 417.97 281.451 415.38 284.521 413.51C287.601 411.66 290.851 410.58 294.311 410.33L295.351 418.24C292.681 418.63 290.331 419.43 288.291 420.67C286.251 421.9 284.421 423.56 282.841 425.69C281.321 427.76 280.231 429.9 279.591 432.15C278.951 434.41 278.781 436.62 279.071 438.8C279.371 441 280.071 443.05 281.251 445C282.411 446.94 284.001 448.66 286.011 450.15C287.991 451.63 290.071 452.64 292.271 453.22C294.461 453.76 296.651 453.89 298.841 453.54C301.041 453.2 303.111 452.43 305.051 451.21C307.001 450.01 308.751 448.34 310.321 446.26C311.761 444.32 312.851 442.22 313.591 439.96C314.321 437.69 314.571 435.19 314.341 432.47L322.841 432.38C322.951 435.65 322.431 438.95 321.251 442.27C320.071 445.61 318.461 448.65 316.401 451.42V451.41ZM316.761 438.54L302.101 427.63L307.231 420.75L322.831 432.37L316.761 438.53V438.54Z" fill="#E93225"/>
<path d="M343.852 415.45L323.352 365.99L329.472 359.5L380.132 376.89L373.632 383.8L328.632 367.41L331.122 364.78L350.262 408.66L343.862 415.46L343.852 415.45ZM342.552 400.34L339.032 393.69L357.102 374.49L363.962 377.58L342.552 400.34Z" fill="#E93225"/>
<path d="M400.511 358.11L368.881 320.92L384.191 307.9C387.471 305.1 390.751 303.23 394.021 302.29C397.271 301.35 400.391 301.34 403.351 302.23C406.311 303.14 408.951 304.94 411.261 307.68C413.581 310.4 414.941 313.29 415.341 316.35C415.741 319.38 415.201 322.43 413.731 325.49C412.271 328.54 409.881 331.45 406.591 334.27L395.111 344.03L395.521 338.25L407.411 352.24L400.511 358.11ZM396.161 339L390.281 338.33L401.441 328.84C404.491 326.25 406.221 323.64 406.661 321.03C407.081 318.41 406.301 315.93 404.311 313.59C402.291 311.22 399.971 310.04 397.341 310.07C394.721 310.12 391.881 311.42 388.841 314.02L377.681 323.51L377.861 317.48L396.161 338.99V339ZM424.851 337.42L403.961 331.91L411.351 325.63L432.281 331.09L424.841 337.41L424.851 337.42Z" fill="#E93225"/>
<path d="M482.592 294.75L476.602 241.55L484.292 237.01L528.142 267.76L519.982 272.6L481.282 244.39L484.392 242.53L490.652 290L482.602 294.75H482.592ZM485.532 279.88L484.012 272.52L506.682 259.07L512.412 263.95L485.532 279.88Z" fill="#E93225"/>
<path d="M552.681 255.389L532.861 210.779L539.681 207.749L582.921 229.669L579.551 231.169L564.281 196.819L572.501 193.159L592.331 237.789L585.511 240.809L542.261 218.889L545.641 217.389L560.911 251.739L552.681 255.399V255.389Z" fill="#E93225"/>
<path d="M624.021 225.899L609.691 179.219L630.091 172.959C635.161 171.399 639.911 171.029 644.331 171.799C648.751 172.579 652.571 174.389 655.761 177.189C658.961 180.009 661.281 183.759 662.731 188.489C664.161 193.169 664.341 197.559 663.271 201.699C662.211 205.839 660.071 209.479 656.841 212.599C653.621 215.739 649.471 218.079 644.411 219.639L624.011 225.899H624.021ZM630.421 215.909L641.761 212.439C645.271 211.359 648.111 209.759 650.251 207.639C652.401 205.529 653.791 203.039 654.461 200.229C655.121 197.389 654.971 194.379 653.981 191.189C652.991 187.929 651.431 185.329 649.291 183.379C647.171 181.439 644.611 180.189 641.651 179.629C638.681 179.069 635.441 179.329 631.931 180.419L620.601 183.909L630.411 215.909H630.421Z" fill="#E93225"/>
<path d="M752.821 196.86C749.031 197.34 745.331 197.27 741.741 196.63C738.141 195.98 735.211 194.94 732.981 193.49L735.181 186.1C737.311 187.38 739.881 188.35 742.871 188.99C745.871 189.64 748.861 189.77 751.851 189.39C754.391 189.07 756.41 188.52 757.91 187.78C759.4 187.01 760.461 186.12 761.081 185.08C761.701 184.04 761.931 182.92 761.771 181.72C761.591 180.24 760.901 179.12 759.731 178.36C758.551 177.6 757.101 177.07 755.341 176.74C753.591 176.43 751.651 176.17 749.551 175.98C747.431 175.79 745.321 175.5 743.181 175.15C741.051 174.78 739.071 174.21 737.271 173.44C735.451 172.67 733.921 171.53 732.651 169.99C731.371 168.47 730.561 166.41 730.231 163.84C729.901 161.21 730.29 158.71 731.41 156.34C732.55 153.97 734.451 151.95 737.181 150.26C739.891 148.58 743.461 147.46 747.891 146.89C750.801 146.52 753.721 146.52 756.691 146.89C759.641 147.25 762.261 147.99 764.561 149.1L762.631 156.46C760.291 155.45 757.931 154.78 755.551 154.45C753.171 154.12 750.921 154.1 748.801 154.37C746.301 154.69 744.331 155.24 742.861 156.05C741.381 156.84 740.351 157.76 739.771 158.83C739.181 159.89 738.951 161.04 739.111 162.29C739.301 163.75 739.971 164.89 741.131 165.64C742.291 166.42 743.741 166.95 745.481 167.24C747.231 167.52 749.171 167.77 751.311 168C753.441 168.22 755.581 168.49 757.701 168.83C759.831 169.17 761.801 169.7 763.611 170.48C765.411 171.22 766.951 172.36 768.201 173.89C769.451 175.42 770.231 177.44 770.561 179.99C770.891 182.58 770.501 185.05 769.371 187.43C768.251 189.8 766.321 191.83 763.581 193.51C760.831 195.19 757.261 196.31 752.841 196.89L752.821 196.86Z" fill="#E93225"/>
<path d="M802.951 191.41L801.881 142.6L821.971 142.17C826.281 142.07 830.011 142.69 833.131 144.01C836.251 145.34 838.681 147.28 840.411 149.86C842.141 152.43 843.061 155.49 843.131 159.08C843.201 162.67 842.431 165.76 840.811 168.41C839.201 171.06 836.861 173.1 833.791 174.56C830.721 176.01 827.041 176.8 822.711 176.89L807.651 177.22L811.611 172.88L812.001 191.21L802.941 191.41H802.951ZM811.641 173.84L807.501 169.55L822.141 169.22C826.151 169.14 829.131 168.22 831.121 166.47C833.111 164.74 834.071 162.34 833.991 159.26C833.931 156.15 832.871 153.78 830.811 152.15C828.761 150.52 825.721 149.74 821.721 149.82L807.081 150.15L811.031 145.6L811.641 173.83V173.84Z" fill="#E93225"/>
<path d="M874.701 191.97L877.941 143.26L886.991 143.85L883.751 192.56L874.701 191.97Z" fill="#E93225"/>
<path d="M940.601 199.95C936.921 199.38 933.611 198.24 930.661 196.53C927.701 194.82 925.231 192.67 923.261 190.07C921.281 187.48 919.891 184.56 919.081 181.35C918.271 178.11 918.141 174.7 918.711 171.12C919.251 167.52 920.421 164.33 922.181 161.49C923.931 158.65 926.161 156.31 928.861 154.44C931.551 152.59 934.551 151.28 937.871 150.56C941.171 149.83 944.691 149.77 948.421 150.33C952.371 150.94 955.871 152.19 958.921 154.06C961.971 155.91 964.411 158.36 966.251 161.37L959.611 165.92C958.161 163.75 956.431 162.04 954.411 160.77C952.401 159.49 950.131 158.66 947.611 158.26C945.071 157.85 942.711 157.91 940.481 158.41C938.251 158.92 936.271 159.79 934.491 161.07C932.721 162.36 931.241 163.96 930.071 165.91C928.891 167.84 928.121 170.04 927.731 172.53C927.341 175 927.411 177.34 927.931 179.55C928.461 181.76 929.371 183.73 930.681 185.49C931.971 187.24 933.611 188.7 935.571 189.86C937.531 191.01 939.771 191.79 942.301 192.18C944.831 192.57 947.241 192.46 949.551 191.86C951.851 191.26 954.031 190.13 956.071 188.47L961.011 194.9C958.341 197.16 955.281 198.73 951.801 199.6C948.331 200.47 944.581 200.59 940.601 199.96V199.95Z" fill="#E93225"/>
<path d="M999.73 203.77L1026.34 210.9L1024.38 218.24L989.01 208.77L1001.64 161.6L1036.07 170.82L1034.11 178.18L1008.43 171.3L999.73 203.77ZM1004.47 183.39L1027.9 189.67L1025.97 196.88L1002.53 190.59L1004.47 183.39Z" fill="#E93225"/>
<path d="M1089.9 241.839L1110.27 197.479L1131.07 206.999C1136.39 209.439 1139.97 212.349 1141.8 215.729C1143.63 219.089 1143.74 222.539 1142.13 226.039C1141.04 228.409 1139.56 230.169 1137.7 231.339C1135.83 232.499 1133.77 233.119 1131.51 233.189C1129.26 233.259 1127.06 232.779 1124.9 231.809L1127.09 230.039C1129.58 231.189 1131.61 232.67 1133.17 234.49C1134.75 236.32 1135.71 238.359 1136.09 240.619C1136.45 242.889 1136.04 245.309 1134.86 247.889C1133.11 251.689 1130.3 253.99 1126.4 254.77C1122.53 255.54 1117.7 254.609 1111.96 251.969L1089.89 241.859L1089.9 241.839ZM1101.1 239.149L1114.43 245.27C1117.51 246.68 1120.11 247.259 1122.22 247.009C1124.33 246.739 1125.91 245.489 1126.93 243.249C1127.94 241.049 1127.86 239.06 1126.68 237.27C1125.51 235.48 1123.38 233.86 1120.3 232.46L1106.35 226.07L1109.3 219.669L1121.58 225.299C1124.46 226.629 1126.9 227.14 1128.9 226.82C1130.92 226.51 1132.37 225.339 1133.32 223.309C1134.27 221.259 1134.21 219.349 1133.13 217.619C1132.05 215.909 1130.08 214.379 1127.2 213.079L1115.54 207.719L1101.1 239.149Z" fill="#E93225"/>
<path d="M1175.69 286.999C1172.43 285.009 1169.76 282.64 1167.69 279.89C1165.61 277.15 1164.15 274.189 1163.3 271.019C1162.46 267.859 1162.28 264.639 1162.76 261.359C1163.24 258.089 1164.43 254.909 1166.31 251.809C1168.21 248.709 1170.51 246.209 1173.2 244.279C1175.91 242.369 1178.86 241.069 1182.05 240.369C1185.25 239.689 1188.54 239.649 1191.94 240.259C1195.33 240.869 1198.64 242.139 1201.85 244.119C1205.1 246.109 1207.75 248.469 1209.82 251.199C1211.89 253.929 1213.34 256.889 1214.18 260.029C1215.03 263.209 1215.21 266.41 1214.72 269.7C1214.24 272.97 1213.06 276.159 1211.16 279.249C1209.28 282.339 1206.97 284.859 1204.26 286.799C1201.55 288.739 1198.6 290.039 1195.41 290.709C1192.23 291.379 1188.94 291.409 1185.57 290.809C1182.21 290.229 1178.91 288.95 1175.71 286.98L1175.69 286.999ZM1179.77 280.17C1181.87 281.46 1184.04 282.279 1186.25 282.659C1188.46 283.049 1190.64 282.979 1192.77 282.459C1194.89 281.929 1196.87 281.009 1198.68 279.689C1200.48 278.379 1202.05 276.649 1203.36 274.499C1204.67 272.349 1205.51 270.189 1205.85 267.969C1206.2 265.759 1206.12 263.579 1205.63 261.439C1205.13 259.329 1204.21 257.349 1202.86 255.549C1201.52 253.749 1199.79 252.189 1197.68 250.909C1195.58 249.629 1193.42 248.789 1191.22 248.439C1189.02 248.079 1186.85 248.139 1184.72 248.659C1182.57 249.179 1180.6 250.099 1178.78 251.409C1176.96 252.729 1175.4 254.449 1174.09 256.609C1172.81 258.699 1171.98 260.869 1171.63 263.089C1171.27 265.329 1171.35 267.529 1171.83 269.649C1172.33 271.769 1173.25 273.739 1174.59 275.549C1175.94 277.349 1177.67 278.899 1179.77 280.179V280.17Z" fill="#E93225"/>
<path d="M1241.1 332.859C1238.11 330.479 1235.76 327.799 1234.04 324.819C1232.31 321.829 1231.24 318.719 1230.78 315.479C1230.33 312.229 1230.55 309.019 1231.43 305.829C1232.32 302.639 1233.88 299.619 1236.15 296.779C1238.41 293.949 1241 291.749 1243.91 290.179C1246.83 288.599 1249.92 287.679 1253.17 287.399C1256.44 287.119 1259.71 287.479 1263 288.489C1266.29 289.509 1269.4 291.209 1272.35 293.549C1275.32 295.919 1277.67 298.599 1279.38 301.559C1281.08 304.519 1282.16 307.629 1282.62 310.869C1283.06 314.109 1282.85 317.329 1281.96 320.519C1281.09 323.719 1279.52 326.739 1277.25 329.569C1274.99 332.419 1272.4 334.619 1269.46 336.199C1266.53 337.789 1263.44 338.719 1260.2 338.979C1256.95 339.249 1253.7 338.889 1250.43 337.889C1247.15 336.869 1244.04 335.189 1241.1 332.849V332.859ZM1246 326.599C1247.92 328.119 1249.96 329.219 1252.13 329.879C1254.29 330.519 1256.44 330.719 1258.62 330.459C1260.78 330.199 1262.85 329.519 1264.82 328.449C1266.78 327.359 1268.54 325.849 1270.11 323.879C1271.68 321.919 1272.77 319.859 1273.39 317.719C1274 315.559 1274.2 313.389 1273.97 311.219C1273.74 309.049 1273.06 306.969 1271.95 305.029C1270.85 303.049 1269.32 301.319 1267.4 299.789C1265.47 298.249 1263.44 297.159 1261.29 296.519C1259.16 295.879 1256.99 295.689 1254.81 295.929C1252.61 296.179 1250.54 296.849 1248.58 297.929C1246.62 299.009 1244.86 300.539 1243.29 302.489C1241.75 304.419 1240.67 306.459 1240.03 308.649C1239.39 310.809 1239.2 312.989 1239.43 315.149C1239.66 317.329 1240.33 319.379 1241.44 321.359C1242.56 323.309 1244.07 325.059 1246 326.599Z" fill="#E93225"/>
<path d="M1284.4 369.32L1319.07 334.93L1325.45 341.38L1290.78 375.74L1284.4 369.31V369.32ZM1298.27 366.96L1305.55 359.05L1342.44 358.52L1349.61 365.75L1318.58 366.56L1311.13 366.88L1298.26 366.97L1298.27 366.96ZM1308.36 393.48L1310.99 364.55L1319.92 364.14L1315.82 401.01L1308.35 393.47L1308.36 393.48Z" fill="#E93225"/>
<path d="M1370.29 471C1368.16 467.96 1366.67 464.77 1365.85 461.48C1365.02 458.17 1364.85 454.9 1365.35 451.67C1365.84 448.46 1366.97 445.44 1368.72 442.6C1370.48 439.76 1372.85 437.31 1375.82 435.23C1378.79 433.14 1381.89 431.73 1385.15 431.04C1388.41 430.34 1391.65 430.3 1394.86 430.95C1398.07 431.59 1401.08 432.85 1403.92 434.72C1406.75 436.6 1409.23 439.08 1411.4 442.16C1413.7 445.43 1415.25 448.82 1416.03 452.31C1416.8 455.8 1416.75 459.25 1415.86 462.66L1407.97 461.04C1408.51 458.5 1408.55 456.06 1408.07 453.72C1407.59 451.39 1406.62 449.17 1405.14 447.09C1403.68 444.99 1401.98 443.33 1400.08 442.07C1398.17 440.82 1396.15 440 1394 439.62C1391.85 439.22 1389.67 439.28 1387.47 439.78C1385.26 440.28 1383.13 441.26 1381.08 442.7C1379.03 444.15 1377.39 445.83 1376.18 447.73C1374.97 449.65 1374.18 451.68 1373.82 453.83C1373.46 456 1373.55 458.19 1374.08 460.39C1374.61 462.6 1375.62 464.75 1377.1 466.84C1378.56 468.93 1380.31 470.6 1382.36 471.83C1384.39 473.07 1386.72 473.84 1389.33 474.17L1388.15 482.18C1384.66 481.84 1381.41 480.72 1378.36 478.82C1375.31 476.92 1372.64 474.32 1370.3 471.01L1370.29 471Z" fill="#E93225"/>
<path d="M1407.38 531.09C1405.55 527.74 1404.43 524.36 1404 520.94C1403.57 517.52 1403.77 514.23 1404.61 511.06C1405.46 507.9 1406.9 505.03 1408.96 502.43C1411.01 499.83 1413.64 497.66 1416.82 495.93C1420.01 494.19 1423.25 493.17 1426.55 492.85C1429.84 492.53 1433.04 492.87 1436.17 493.88C1439.28 494.88 1442.16 496.49 1444.8 498.72C1447.43 500.93 1449.65 503.69 1451.45 507C1453.28 510.36 1454.4 513.72 1454.82 517.11C1455.25 520.52 1455.02 523.79 1454.18 526.95C1453.33 530.12 1451.89 533 1449.83 535.6C1447.79 538.2 1445.16 540.37 1441.99 542.1C1438.8 543.84 1435.55 544.86 1432.23 545.18C1428.92 545.51 1425.71 545.17 1422.61 544.16C1419.51 543.15 1416.65 541.54 1414.02 539.34C1411.4 537.15 1409.18 534.39 1407.39 531.09H1407.38ZM1414.33 527.23C1415.51 529.39 1416.96 531.19 1418.7 532.63C1420.44 534.06 1422.36 535.07 1424.46 535.68C1426.56 536.28 1428.73 536.46 1430.96 536.24C1433.17 535.99 1435.4 535.29 1437.6 534.08C1439.81 532.88 1441.61 531.4 1443.01 529.65C1444.42 527.9 1445.43 525.98 1446.06 523.91C1446.7 521.81 1446.89 519.64 1446.62 517.41C1446.36 515.17 1445.63 512.97 1444.46 510.81C1443.27 508.63 1441.81 506.84 1440.09 505.43C1438.38 504.02 1436.46 503 1434.33 502.38C1432.23 501.76 1430.05 501.56 1427.83 501.8C1425.6 502.03 1423.38 502.75 1421.18 503.95C1419.01 505.13 1417.22 506.6 1415.8 508.37C1414.37 510.11 1413.35 512.04 1412.71 514.14C1412.07 516.24 1411.89 518.41 1412.15 520.63C1412.41 522.87 1413.14 525.06 1414.32 527.24L1414.33 527.23Z" fill="#E93225"/>
<path d="M1433.23 583.679C1432.61 582.229 1432.58 580.769 1433.14 579.309C1433.7 577.859 1434.74 576.789 1436.28 576.129C1437.89 575.429 1439.41 575.379 1440.82 575.989C1442.22 576.599 1443.23 577.619 1443.86 579.079C1444.48 580.529 1444.54 581.989 1444.03 583.419C1443.51 584.869 1442.44 585.939 1440.82 586.629C1439.28 587.299 1437.79 587.329 1436.35 586.739C1434.9 586.149 1433.85 585.119 1433.23 583.669V583.679Z" fill="#E93225"/>
<path d="M1378.39 926.74C1377.86 929.95 1377.32 933.12 1376.74 936.3C1329.87 1191.65 1105.66 1385.75 836.97 1385.75C568.28 1385.75 344.07 1191.61 297.2 936.26C296.62 933.09 296.09 929.92 295.55 926.7L286 928.22C286.54 931.43 287.07 934.64 287.65 937.82C335.26 1197.82 563.51 1395.42 836.97 1395.42C1110.43 1395.42 1338.65 1197.82 1386.26 937.86C1386.87 934.69 1387.41 931.48 1387.95 928.26L1378.4 926.74H1378.39ZM298.89 729.09C349.14 477.99 571.33 288.25 836.97 288.25C1102.61 288.25 1324.77 477.99 1375.06 729.05C1375.72 732.22 1376.29 735.39 1376.91 738.6L1386.51 737.41C1385.93 734.24 1385.31 731.07 1384.7 727.9C1333.84 472.02 1107.61 278.57 836.98 278.57C566.35 278.57 340.13 472.02 289.26 727.9C288.64 731.07 288.02 734.24 287.45 737.45L297.05 738.6C297.62 735.43 298.25 732.26 298.9 729.09H298.89Z" fill="#E93225"/>
<path d="M377.681 742.89V919.12C377.681 921.51 375.951 923.53 373.641 923.94L297.201 936.25L287.651 937.81L70.8509 972.77L69.3309 963.18L286.001 928.21L295.551 926.69L368.001 914.99V747.2L297.041 738.59L287.441 737.44L67.6309 710.79L68.8309 701.19L289.251 727.88L298.891 729.07L373.431 738.09C375.861 738.38 377.681 740.44 377.681 742.87V742.89Z" fill="#E93225"/>
<path d="M1387.94 928.26L1604.41 963.19L1602.85 972.78L1386.26 937.86L1376.75 936.3L1300.1 923.94C1297.75 923.53 1296.02 921.51 1296.02 919.12V742.89C1296.02 740.46 1297.83 738.4 1300.31 738.11L1375.06 729.05L1384.7 727.9L1604.91 701.21L1606.06 710.81L1386.5 737.41L1376.9 738.6L1305.73 747.21V915L1378.38 926.74L1387.93 928.26H1387.94Z" fill="#E93225"/>
<path d="M836.97 1673.99C613.41 1673.99 403.23 1586.93 245.12 1428.85C87.05 1270.77 0 1060.57 0 836.99C0 613.41 87.05 403.22 245.12 245.16C403.2 87.07 613.39 0 836.97 0C1060.55 0 1270.72 87.07 1428.82 245.16C1586.9 403.24 1673.97 613.42 1673.97 836.99C1673.97 1060.56 1586.91 1270.73 1428.83 1428.84C1270.71 1586.92 1060.52 1673.99 836.97 1673.99ZM836.97 21.58C619.15 21.58 414.39 106.4 260.38 260.42C106.4 414.41 21.59 619.17 21.59 836.99C21.59 1054.81 106.4 1259.58 260.39 1413.58C414.43 1567.58 619.19 1652.41 836.98 1652.41C1054.77 1652.41 1259.54 1567.59 1413.58 1413.58C1567.58 1259.55 1652.4 1054.78 1652.4 836.99C1652.4 619.2 1567.58 414.43 1413.57 260.43C1259.53 106.41 1054.76 21.58 836.97 21.58Z" fill="#E93225"/>
<path d="M836.971 1621.68C627.381 1621.68 430.321 1540.06 282.111 1391.86C133.901 1243.65 52.3008 1046.6 52.3008 836.99C52.3008 627.38 133.911 430.35 282.111 282.15C430.321 133.93 627.391 52.3096 836.971 52.3096C1046.55 52.3096 1243.61 133.94 1391.84 282.16C1540.04 430.35 1621.67 627.4 1621.67 837C1621.67 1046.6 1540.04 1243.66 1391.84 1391.87C1243.61 1540.07 1046.57 1621.69 836.971 1621.69V1621.68ZM836.971 61.9996C629.961 61.9996 435.341 142.62 288.951 289.01C142.601 435.37 62.0008 629.99 62.0008 836.99C62.0008 1043.99 142.601 1238.62 288.961 1385C435.351 1531.38 629.981 1611.98 836.981 1611.98C1043.98 1611.98 1238.61 1531.38 1385 1385C1531.36 1238.61 1611.96 1044.01 1611.96 836.99C1611.96 629.97 1531.36 435.37 1385 289.01C1238.61 142.62 1043.98 61.9996 836.981 61.9996H836.971Z" fill="#E93225"/>
<path d="M263.079 835.84C260.959 840.21 258.589 844.52 255.669 848.51C253.309 851.51 250.819 854.42 248.259 857.28C240.869 865.53 233.499 873.83 224.819 881.04C219.759 885.43 214.749 889.88 209.449 894.03C207.309 895.68 205.119 897.32 202.649 898.55C197.579 896.28 193.679 892.53 189.579 889.11C182.699 883.57 176.519 877.24 170.309 870.76C162.969 863.09 157.059 855.23 151.129 847.61C145.039 839.79 143.399 832.32 140.419 821.79C138.319 814.36 136.509 800.66 140.639 793.5C144.569 786.52 150.439 781.52 159.479 782.58C164.299 783.5 172.779 790.28 175.749 793.84C179.959 798.91 198.599 824.76 200.589 823.56C203.159 821.31 210.449 814.27 212.829 811.85C221.709 802.1 235.679 787.65 249.729 784.76C255.099 783.81 258.699 783.35 263.279 786.03C269.589 790.37 270.929 797.57 271.439 804.59C271.969 813.72 267.199 827.53 263.089 835.85L263.079 835.84Z" fill="#E93225"/>
<path d="M1528.37 835.84C1526.25 840.21 1523.88 844.52 1520.96 848.51C1518.6 851.51 1516.11 854.42 1513.55 857.28C1506.16 865.53 1498.79 873.83 1490.11 881.04C1485.05 885.43 1480.04 889.88 1474.74 894.03C1472.6 895.68 1470.41 897.32 1467.94 898.55C1462.87 896.28 1458.97 892.53 1454.87 889.11C1447.99 883.57 1441.81 877.24 1435.6 870.76C1428.26 863.09 1422.35 855.23 1416.42 847.61C1410.33 839.79 1408.69 832.32 1405.71 821.79C1403.61 814.36 1401.8 800.66 1405.93 793.5C1409.86 786.52 1415.73 781.52 1424.77 782.58C1429.59 783.5 1438.07 790.28 1441.04 793.84C1445.25 798.91 1463.89 824.76 1465.88 823.56C1468.45 821.31 1475.74 814.27 1478.12 811.85C1487 802.1 1500.97 787.65 1515.02 784.76C1520.39 783.81 1523.99 783.35 1528.57 786.03C1534.88 790.37 1536.22 797.57 1536.73 804.59C1537.26 813.72 1532.49 827.53 1528.38 835.85L1528.37 835.84Z" fill="#E93225"/>
</g>
<defs>
<clipPath id="clip0_426_2">
<rect width="1673.97" height="1673.99" fill="white"/>
</clipPath>
</defs>
</svg>
