<svg width="126" height="126" viewBox="0 0 126 126" fill="none" xmlns="http://www.w3.org/2000/svg">
<path d="M62.6422 0C46.7842 0 31.6501 5.92205 20.0034 16.6475C8.55408 27.1756 1.44761 41.4543 0 56.7859C0 57.0491 0.0658006 57.2465 0.197402 57.4439C0.394804 57.6413 0.592205 57.7071 0.789607 57.7071H9.40948C9.80429 57.7071 10.1991 57.3781 10.2649 56.9833C11.7125 44.4154 17.6346 32.7687 26.9782 24.2146C36.7167 15.1999 49.3504 10.2649 62.6422 10.2649C91.6602 10.2649 115.283 33.8873 115.283 62.9053C115.283 89.8836 95.0819 112.388 68.2352 115.217L67.7746 115.283V106.005L68.1036 105.939C89.6862 103.176 106.005 84.6853 106.005 62.9053C106.005 53.43 102.978 44.4154 97.3191 36.8483C97.1875 36.6509 96.9243 36.5193 96.6611 36.5193C96.4637 36.5193 96.2005 36.5851 96.0689 36.7825L89.9494 42.9677C89.6862 43.2309 89.6204 43.6916 89.8836 44.0206C96.1347 53.0352 97.5165 64.4845 93.5684 75.4732C90.8048 83.3035 84.7512 89.6862 77.1183 93.042C65.5374 98.0428 53.3643 96.99 43.6258 90.081C34.0847 83.3693 28.8207 72.4464 29.6103 60.7997C30.7289 43.7574 45.534 29.8734 62.708 29.8734H63.366C69.946 30.005 76.1971 32.0448 81.5927 35.7955C81.9217 36.0587 82.3823 35.9929 82.6455 35.7297L88.8308 29.6102C89.0282 29.4128 89.094 29.2154 89.094 28.9522C89.094 28.689 88.9624 28.4916 88.765 28.36C79.6187 21.451 68.1694 18.5557 56.6543 20.0691C40.6648 22.1748 24.083 37.2431 20.464 52.8378C17.5688 65.3399 20.0034 77.8421 27.2414 88.0412C34.2821 97.977 45.205 104.557 57.2465 106.071L57.5755 106.137V115.414L57.1149 115.349C45.7972 114.164 35.4007 109.427 27.044 101.728C17.7004 93.1078 11.7783 81.4611 10.3965 68.959C10.3307 68.4984 10.0017 68.2352 9.54109 68.1694H0.855408C0.592205 68.1694 0.394804 68.301 0.263202 68.4326C0.131601 68.5642 0 68.8274 0.0658006 69.0906C1.51341 84.4879 8.61988 98.7666 20.0692 109.295C31.7159 120.021 46.85 125.943 62.708 125.943C97.3849 125.943 125.613 97.7138 125.613 63.0369C125.613 28.36 97.3191 0 62.6422 0Z" fill="black"/>
<path d="M79.487 55.9305H76.1969L76.1311 51.9824C76.1311 48.3634 74.7493 45.0076 72.2489 42.5071C69.7485 40.0067 66.3926 38.6249 62.7736 38.5591H62.7078C59.0888 38.5591 55.7329 39.9409 53.1667 42.4413C50.6005 44.9418 49.1529 48.3634 49.1529 51.9824L49.2187 55.9305H45.9945C45.468 55.9305 45.0732 56.3911 45.0732 56.8517V80.5399C45.0732 81.0663 45.5338 81.4611 45.9945 81.4611H79.487C80.0134 81.4611 80.4082 81.0005 80.4082 80.5399V56.8517C80.474 56.3253 80.0134 55.9305 79.487 55.9305ZM64.945 68.5642C64.8134 68.63 64.7476 68.7616 64.7476 68.959V74.4862C64.7476 75.6048 63.8922 76.4602 62.7736 76.4602C61.655 76.4602 60.7996 75.6048 60.7996 74.4862V68.959C60.7996 68.8274 60.7338 68.6958 60.6022 68.5642C59.2862 67.7088 58.4308 66.1296 58.694 64.4187C58.9572 62.5763 60.4706 61.1287 62.313 60.9313C64.8134 60.6681 66.919 62.5763 66.919 65.0109C66.919 66.5244 66.1294 67.8404 64.945 68.5642ZM58.365 55.9305V51.9824C58.365 50.798 58.8256 49.7452 59.681 48.9556C60.4706 48.166 61.5892 47.7054 62.7736 47.7054C63.958 47.7054 65.0766 48.166 65.8662 48.9556C66.6558 49.7452 67.1164 50.798 67.1164 51.9824L67.1822 55.9305H58.365Z" fill="black"/>
</svg>
